<svg preserveAspectRatio="xMidYMid meet" data-bbox="141.417 90.066 732.892 411.684" viewBox="141.417 90.066 732.892 411.684" xmlns="http://www.w3.org/2000/svg" data-type="shape" role="img" aria-label="N.S. Rathor Consulting">
    <g fill="#fdfcfa">
        <path d="M665.043 312.837c-5.74-11.885-11.408-23.39-16.8-35.023-1.566-3.375-3.633-4.722-7.33-4.502-7.14.423-14.3.597-21.454.693-3.797.05-5.31 1.63-5.24 5.483.397 21.82.155 43.644.401 65.468.135 11.977 1.502 9.854-9.186 10.038-14.159.243-28.329-.121-42.485.19-4.947.11-5.32-2.295-5.314-6.12.06-34.993.136-69.987-.025-104.979-.192-41.642-.624-83.283-.925-124.925-.05-7.127.016-7.234 7.221-7.073 46.643 1.04 93.294.44 139.94.695 5.145.028 9.043 1.202 11.799 5.695 1.032 1.682 2.664 2.986 3.823 4.605 1.785 2.497 3.792 2.763 6.463 1.398 4.296-2.194 8.628-4.358 13.095-6.166 4.708-1.906 3.793-6.226 4.52-9.738.971-4.704 1.514-9.503 2.085-14.28.323-2.696 1.794-3.734 4.327-3.772 9.324-.143 18.648-.323 27.972-.457 4.236-.06 6.277 1.839 6.522 6.314.299 5.452 1.28 10.868 1.98 16.297.063.49.19.982.364 1.445 1.912 5.09 18.748 10.453 23.103 7.25a406 406 0 0 0 14.645-11.277c2.572-2.078 4.52-2.004 6.816.477 6.9 7.457 13.908 14.817 20.988 22.104 2.352 2.42 2.246 4.415.136 6.915-3.435 4.072-6.546 8.418-9.958 12.51-1.943 2.33-2.281 4.404-.845 7.228 1.878 3.69 3.51 7.577 4.647 11.55 1.069 3.74 3.275 4.924 6.869 5.13 5.307.304 10.591 1.013 15.887 1.524 3.573.345 5.266 2.102 5.22 5.868-.125 9.997-.065 19.996.005 29.993.02 2.987-1.044 4.635-4.23 4.954-5.447.546-10.86 1.429-16.305 2.026-4.184.459-7.31 1.945-8.037 6.604-.201 1.288-.621 2.703-1.393 3.716-5.083 6.673-3.505 12.25 2.215 17.673 2.752 2.609 4.746 6.002 7.224 8.92 2.01 2.37 1.824 4.52-.232 6.622-7.338 7.504-14.753 14.933-22.026 22.5-2.18 2.266-3.944 1.639-6.042.036-4.895-3.74-9.93-7.3-14.779-11.098-2.403-1.882-4.658-2.188-7.334-.72-1.891 1.038-3.865 2.315-5.922 2.592-8.06 1.085-9.638 6.67-10.12 13.41-.283 3.963-1.043 7.892-1.588 11.837-.381 2.759-1.86 3.933-4.74 3.897-9.33-.115-18.664-.137-27.993 0-3.58.052-4.995-1.436-5.397-4.92-.684-5.926-1.906-11.789-2.656-17.71-.367-2.903-1.913-4.284-4.45-5.343-4.382-1.827-9.154-3.02-12.459-6.42-.1-1.953 1.102-2.747 2.017-3.657 6.24-6.211 11.211-13.206 13.414-21.87.818-3.217 2.08-4.336 5.63-2.939 32.75 12.894 60.626-9.807 66.88-35.33 4.344-17.724-5.102-39.658-21.913-50.533-15.905-10.288-32.37-10.787-49.408-3.015-5.112 2.331-6.563 5.937-6.391 11.52.746 24.266 1.052 48.561-1.92 72.726-1.741 14.153-10.46 23.323-22.608 29.677-6.996 3.66-7.031 3.59-3.45 10.839 11.587 23.443 23.177 46.885 34.747 70.337.575 1.165 1.554 2.22 1.241 3.79-1.376 1.861-3.487 1.499-5.425 1.498-17.133-.012-34.267-.148-51.399-.032-3.455.023-5.077-1.565-6.403-4.38-5.888-12.505-11.882-24.96-18.014-37.765m.443-90.859c2.329.033 4.657.092 6.986.095 8.213.009 11.14-2.86 11.174-10.975.05-11.473.085-22.944-.743-34.402-.514-7.101-5.224-11.012-12.406-10.166-2.632.31-5.282.62-7.927.641-13.971.116-27.944.232-41.915.145-4.652-.029-6.545 1.719-6.48 6.493.187 13.637.159 27.28-.019 40.917-.056 4.369 1.288 6.285 5.958 6.322 14.794.115 29.586.585 45.372.93"/>
        <path d="M141.654 185c.002-22.498.11-44.496-.084-66.492-.04-4.616 1.417-5.949 6.024-5.896 19.495.222 38.996.219 58.49-.072 5.331-.08 8.283 1.528 10.763 6.495 21.427 42.918 43.155 85.687 64.837 128.478.933 1.841 1.59 4.092 4.35 4.776 2.618-3.561 1.574-7.79 1.362-11.465-.836-14.49-.467-28.983-.613-43.468-.265-26.328-.029-52.66-.258-78.99-.042-4.717 1.495-5.885 6.048-5.797 14.658.283 29.326.133 43.99.078 7.532-.029 7.604-.086 7.614 7.367.075 55.993.045 111.987.223 167.98.065 20.32.502 40.642 1.01 60.957.117 4.693-1.176 6.372-6.14 6.289-18.16-.304-36.327-.268-54.49-.094-4.474.043-6.968-1.71-8.977-5.56-23.425-44.887-46.957-89.717-70.5-134.542-1.426-2.715-2.47-5.782-5.211-7.558-2.423.925-1.707 2.859-1.707 4.359-.02 43.995-.042 87.99.063 131.984.027 11.33.222 11.347-11.1 11.356-12.832.01-25.663-.018-38.495-.03-6.538-.007-6.76-.107-6.783-6.68-.163-47.826-.275-95.652-.4-143.479-.016-6.499-.01-12.997-.016-19.996"/>
        <path d="M373.629 200.99c.004-16.992-.004-33.487.024-49.982.038-22.44 14.318-37.736 36.747-38.134 36.129-.642 72.27-.6 108.404-.948 3.905-.037 5.63 1.002 5.628 5.335-.008 15.322-.556 30.654.358 45.969.18 3.001-1.087 4.262-4.088 4.14-3.16-.128-6.33-.067-9.496-.03-25.482.293-50.964.676-76.447.837-4.796.03-6.066 2.054-6.565 6.578-.832 7.53 2.217 11.821 8.545 15.605 28.015 16.75 55.658 34.12 83.694 50.832 7.563 4.509 10.682 10.895 10.798 18.895.27 18.49.485 37-.11 55.476-.807 25.058-15.84 39.17-41.899 39.43-31.652.315-63.31.064-94.967.063-5.33 0-10.667-.109-15.992.089-3.334.124-5.104-1.126-5.114-4.486-.05-15.991-.085-31.983-.082-47.974 0-4 2.944-3.732 5.672-3.729q40.236.054 80.474.095 4.498.003 8.996-.023c3.601-.02 5.258-1.611 5.61-5.43.59-6.428-1.187-10.547-7.247-14.1-27.716-16.252-55.017-33.21-82.607-49.68-7.366-4.397-9.524-11.147-10.244-18.837-.294-3.14-.074-6.327-.092-9.99"/>
        <path d="M327.627 462.277a2285 2285 0 0 0-7.183-16.794l-.841.106c-.083 1.897-.236 3.794-.239 5.692-.022 14.663-.138 29.328.061 43.99.057 4.166-.969 5.893-5.51 5.962-14.275.217-14.268.394-14.27-13.972-.006-27.327.07-54.655-.116-81.982-.028-4.19 1.227-5.393 5.357-5.384 15.555.035 15.565-.102 21.54 14.472 5.854 14.283 11.685 28.576 17.695 43.275-.634-18.376-.264-36.249.53-54.12.114-2.555 1.34-3.582 3.75-3.559 3.833.036 7.665.072 11.497.072 3.045 0 4.066 1.698 3.96 4.49-1.147 30.314-.264 60.64-.433 90.959-.022 3.99-1.322 5.51-5.197 4.943-.816-.12-1.664-.018-2.497-.017-12.527 0-12.54.007-17.237-11.412a4165 4165 0 0 1-10.867-26.72"/>
        <path d="M721.01 501.208c-9.843-.063-9.36 1.224-9.36-8.849-.004-28.638.102-57.278-.111-85.915-.037-4.956 1.257-6.694 6.415-6.616 14.397.22 14.452-.015 19.854 13.078 6.082 14.743 12.059 29.53 18.837 44.273q-.002-14.712 0-29.422c.002-7.493.149-14.99-.045-22.477-.096-3.745.986-5.36 5.043-5.401 13.696-.142 13.707-.271 13.71 13.415.007 27.14-.001 54.28-.004 81.42v5.866c-6.319 0-12.244.054-18.167-.024-2.608-.035-2.91-2.38-3.651-4.164-6.315-15.207-12.6-30.425-18.918-45.63-.554-1.335-.84-2.876-2.394-3.76-1.19 2.2-.84 4.533-.847 6.78-.04 13.32-.019 26.641-.025 39.961-.004 7.41-.011 7.412-7.354 7.484-.832.008-1.665-.005-2.983-.019"/>
        <path d="M278.485 485.026c-3.182 9.037-9.386 13.858-18.332 15.393-7.928 1.36-15.892 1.623-23.774.046-11.448-2.29-18.513-10.45-18.649-21.968a2579 2579 0 0 1-.003-58.401c.11-10.085 8.014-18.411 19.104-20.747 8.24-1.735 16.511-1.772 24.755.117 10.326 2.367 17.066 10.586 17.703 21.973.987 17.613.871 35.249.769 52.88-.02 3.482-.41 6.96-1.573 10.707m-18.835-15.711c-.003-14.321.072-28.643-.049-42.963-.05-5.853-4.492-9.05-11.943-9.022-6.693.025-9.397 2.33-9.44 8.716-.113 16.485.017 32.97-.065 49.455-.022 4.507 2.201 6.763 6.411 7.411 10.683 1.645 15.02-2.006 15.086-13.597"/>
        <path d="M812.124 500.388c-12.042-4.673-17.333-12.101-17.232-24.44.14-17.314-.33-34.627.672-51.943.988-17.077 9.766-25.842 26.897-26.018 5.173-.053 10.312-.014 15.385 1.249 12.84 3.197 21.33 17.898 17.384 30.055-.626 1.93-1.994 2.005-3.508 2.016-3.998.03-7.997-.043-11.994.028-2.584.046-3.37-1.117-3.465-3.647-.297-7.838-3.165-10.475-10.738-10.322-7.014.141-10.131 3.332-10.156 10.669a6889 6889 0 0 0 0 45.98c.021 6.567 2.932 9.026 10.332 8.992 7.97-.037 10.8-2.353 10.946-8.973.022-1 .008-2 .008-3 0-7.17.006-7.266-7.009-7.632-2.63-.138-4.027-.925-3.984-3.776.261-17.545-2.54-14.224 13.218-14.624 4.328-.11 8.661.011 12.993.032 2.835.013 4.29 1.351 4.283 4.279-.024 11.656.615 23.372-1.02 34.928-1.113 7.882-6.317 13.338-13.925 15.481-9.395 2.647-19.073 2.164-29.087.666"/>
        <path d="M491.446 482.684c5.927-1.357 8.238-4.848 8.287-10.52.19-22.142.737-44.282.798-66.424.014-4.769 1.602-5.912 6.069-5.855 14.576.189 14.66.041 14.529 14.539-.189 20.813-.575 41.624-.758 62.436-.123 13.924-6.025 21.405-19.71 23.868-7.235 1.303-14.69 1.26-21.902.22-14.34-2.065-20.805-10.027-20.837-25.147-.04-18.315.27-36.63.437-54.945.052-5.655.275-11.313.138-16.963-.07-2.888 1.141-3.93 3.79-3.93 3.663 0 7.335.103 10.99-.099 3.932-.217 5.176 1.463 5.146 5.317-.112 14.488-.009 28.979.132 43.467.074 7.654.369 15.305.608 22.956.253 8.103 3.523 11.14 12.283 11.08"/>
        <path d="M384.382 411.728c4.225-8.354 10.83-12.449 19.695-12.987 5.493-.333 10.99-.375 16.436.602 10.929 1.959 16.88 8.474 17.938 19.555.127 1.326.36 2.642.46 3.97.611 8.134.603 8.124-7.672 8.551-1.327.069-2.652.24-3.968.431-4.284.62-7.176-.061-6.715-5.546.346-4.121-1.852-6.997-6.025-7.976-4.065-.954-8.31-1.12-10.917 2.632-2.444 3.517-2.198 7.696.36 11.242 3.504 4.857 8.803 7.53 13.78 10.548 5.256 3.187 10.973 5.623 15.603 9.82 7.927 7.186 10.37 21.178 5.77 33.435-3.709 9.885-11.594 15.184-23.39 15.273-6.285.048-12.64.838-18.837-1.144-12.044-3.852-18.834-16.82-15.135-28.864.579-1.886 1.881-2.159 3.406-2.212 2.329-.082 4.662-.062 6.993-.057 7.999.017 8.07.013 9.033 8.063.619 5.172 4.38 5.734 8.347 5.925 5.815.28 9.198-1.762 9.957-6.166.769-4.46.392-8.721-4.023-11.412-6.533-3.98-13.097-7.907-19.645-11.862-7.894-4.766-12.773-11.622-13.834-20.838-.806-6.997-.227-13.938 2.383-20.983"/>
        <path d="M141.599 473.58c.02-17.754-.039-35.063.07-52.37.081-12.639 8.311-21.306 21.055-22.075 5.475-.33 11.002-.292 16.48.026 12.645.735 21.148 9.85 21.097 22.658-.051 13.101 1.945 11.26-11.298 11.4-7.432.078-7.433.001-7.54-7.04-.084-5.486-3.915-8.69-10.534-8.81-5.903-.106-9.488 2.864-9.525 8.418-.11 16.322-.134 32.645.008 48.966.052 6.06 3.305 8.403 10.548 8.285 6.87-.111 9.487-2.43 9.685-8.576.206-6.422.206-6.422 6.846-6.48 12.044-.106 12.045-.106 11.871 11.706-.155 10.57-6.214 18.375-16.62 20.746-7.862 1.791-15.98 1.6-23.816.345-10.773-1.725-19.925-8.299-18.327-27.2"/>
        <path d="M613.649 459c-.004-10.999.038-21.498-.03-31.996-.04-5.93-.83-6.673-6.605-6.772-3.5-.06-7.001-.136-10.498-.055-3.104.073-4.687-1.25-4.682-4.401.006-4 .03-8-.04-11.998-.052-2.99 1.449-4.017 4.296-4.189 18.318-1.102 36.651-.233 54.973-.558 3.223-.057 4.431 1.456 4.313 4.6-.15 3.993-.168 8.002.005 11.994.133 3.056-1.306 4.233-4.112 4.298-3.164.072-6.329.183-9.493.229-7.292.106-7.762.562-7.755 7.611.021 22.33-.114 44.66.166 66.987.064 5.082-1.464 7.017-6.495 6.531-2.97-.287-6.008-.215-8.99.018-4.036.315-5.154-1.525-5.105-5.304.156-12.163.054-24.33.052-36.995"/>
        <path d="M561.35 436c0 13.492.12 26.485-.069 39.474-.06 4.113 1.36 5.705 5.483 5.58 6.49-.195 12.99.014 19.486-.028 3.247-.02 4.997 1.17 4.81 4.715-.183 3.488-.134 6.993-.078 10.489.053 3.294-1.307 4.968-4.76 4.805-13.803-.65-27.608-.501-41.41.036-3.02.117-4.164-1.264-4.133-4.187.074-6.828-.007-13.658.005-20.487.04-23.651.201-47.303.05-70.954-.031-4.749 1.385-6.87 6.244-6.375 2.977.302 5.999.618 8.968.428 4.604-.294 5.567 1.914 5.474 6.025-.225 9.988-.072 19.985-.07 30.48"/>
        <path d="M669.651 469c.004-21.312.138-42.125-.085-62.934-.052-4.866 1.576-6.761 6.316-6.156 1.149.147 2.329.05 3.494.051 10.931.012 10.93.011 10.933 11.209.009 27.971-.08 55.943.123 83.913.035 4.843-1.483 6.691-6.283 6.13-2.462-.288-4.989-.03-7.486-.02-6.995.024-7.002.024-7.01-7.218-.007-8.159-.001-16.317-.002-24.975"/>
    </g>
</svg>
